<svg width="200" height="200" viewBox="0 0 200 200" xmlns="http://www.w3.org/2000/svg">
    <!-- 滤镜定义 -->
    <defs>
        <linearGradient id="ringGradient1" x1="0%" y1="0%" x2="100%" y2="100%">
            <stop offset="0%" stop-color="#4361EE"/>
            <stop offset="50%" stop-color="#3A0CA3"/>
            <stop offset="100%" stop-color="#7209B7"/>
        </linearGradient>
        <linearGradient id="ringGradient2" x1="0%" y1="0%" x2="100%" y2="100%">
            <stop offset="0%" stop-color="#F72585"/>
            <stop offset="50%" stop-color="#4CC9F0"/>
            <stop offset="100%" stop-color="#4895EF"/>
        </linearGradient>
        <filter id="glow" x="-20%" y="-20%" width="140%" height="140%">
            <feGaussianBlur stdDeviation="5" result="blur"/>
            <feMerge>
                <feMergeNode in="blur"/>
                <feMergeNode in="SourceGraphic"/>
            </feMerge>
        </filter>
    </defs>

    <!-- 星球基底 -->
    <circle cx="100" cy="100" r="50" fill="#0F172A" stroke="#1E293B" stroke-width="1"/>

    <!-- 主光环 -->
    <g filter="url(#glow)">
        <circle cx="100" cy="100" r="80" fill="url(#ringGradient1)" opacity="0.7"/>
        <circle cx="100" cy="100" r="85" fill="url(#ringGradient2)" opacity="0.5"/>
        <circle cx="100" cy="100" r="90" fill="url(#ringGradient1)" opacity="0.3"/>
    </g>

    <!-- 光环纹理 -->
    <path d="M0,100 Q50,70 100,100 T200,100" fill="none" stroke="url(#ringGradient1)" stroke-width="3" stroke-dasharray="10,5"/>
    <path d="M0,105 Q50,75 100,105 T200,105" fill="none" stroke="url(#ringGradient2)" stroke-width="2" stroke-dasharray="8,4"/>
    <path d="M0,110 Q50,80 100,110 T200,110" fill="none" stroke="url(#ringGradient1)" stroke-width="1.5" stroke-dasharray="6,3"/>

    <!-- 星云背景 -->
    <circle cx="100" cy="100" r="100" fill="none" stroke="#4CC9F0" stroke-width="0.5" opacity="0.2"/>
    <circle cx="100" cy="100" r="110" fill="none" stroke="#F72585" stroke-width="0.3" opacity="0.1"/>

    <!-- 粒子效果 -->
    <g fill="#FFFFFF" opacity="0.6">
        <circle cx="70" cy="80" r="1"/>
        <circle cx="130" cy="80" r="1"/>
        <circle cx="70" cy="120" r="1"/>
        <circle cx="130" cy="120" r="1"/>
        <circle cx="80" cy="70" r="1"/>
        <circle cx="120" cy="70" r="1"/>
        <circle cx="80" cy="130" r="1"/>
        <circle cx="120" cy="130" r="1"/>
        <circle cx="90" cy="60" r="1"/>
        <circle cx="110" cy="60" r="1"/>
        <circle cx="90" cy="140" r="1"/>
        <circle cx="110" cy="140" r="1"/>
    </g>

    <!-- 星球表面细节 -->
    <path d="M60,100 Q80,90 100,100 T140,100 T160,110 T120,110 T100,100 T60,100" fill="#1E293B" opacity="0.5"/>
    <path d="M60,100 Q80,110 100,100 T140,100 T160,90 T120,90 T100,100 T60,100" fill="#1E293B" opacity="0.3"/>
</svg>