<svg width="200" height="200" viewBox="0 0 200 200" xmlns="http://www.w3.org/2000/svg">
    <!-- 星球基底 -->
    <circle cx="100" cy="100" r="80" fill="#121212" stroke="#212121" stroke-width="1"/>

    <!-- 极光背景 -->
    <circle cx="100" cy="100" r="90" fill="none" stroke="#4A148C" stroke-width="1" opacity="0.1"/>
    <circle cx="100" cy="100" r="95" fill="none" stroke="#7B1FA2" stroke-width="1" opacity="0.1"/>
    <circle cx="100" cy="100" r="100" fill="none" stroke="#9C27B0" stroke-width="1" opacity="0.1"/>

    <!-- 极光光带 -->
    <g opacity="0.7">
        <path d="M0,50 Q100,20 200,50 T200,150 T100,180 T0,150 T0,50" fill="none" stroke="#EC407A" stroke-width="3"/>
        <path d="M0,60 Q100,30 200,60 T200,140 T100,170 T0,140 T0,60" fill="none" stroke="#F06292" stroke-width="2.5"/>
        <path d="M0,70 Q100,40 200,70 T200,130 T100,160 T0,130 T0,70" fill="none" stroke="#F48FB1" stroke-width="2"/>
        <path d="M0,80 Q100,50 200,80 T200,120 T100,150 T0,120 T0,80" fill="none" stroke="#F8BBD0" stroke-width="1.5"/>
        <path d="M0,90 Q100,60 200,90 T200,110 T100,140 T0,110 T0,90" fill="none" stroke="#FFCDD2" stroke-width="1"/>
    </g>

    <!-- 极光粒子效果 -->
    <g fill="#FFEB3B" opacity="0.5">
        <circle cx="50" cy="70" r="1.5"/>
        <circle cx="150" cy="70" r="1.5"/>
        <circle cx="50" cy="130" r="1.5"/>
        <circle cx="150" cy="130" r="1.5"/>
        <circle cx="70" cy="50" r="1.5"/>
        <circle cx="130" cy="50" r="1.5"/>
        <circle cx="70" cy="150" r="1.5"/>
        <circle cx="130" cy="150" r="1.5"/>
    </g>

    <!-- 星球表面细节 -->
    <path d="M50,100 Q70,90 90,100 T130,100 T150,110 T110,110 T90,100 T50,100" fill="#263238" opacity="0.3"/>
    <path d="M50,100 Q70,110 90,100 T130,100 T150,90 T110,90 T90,100 T50,100" fill="#263238" opacity="0.2"/>
</svg>