<svg width="200" height="200" viewBox="0 0 200 200" xmlns="http://www.w3.org/2000/svg">
    <!-- 滤镜定义 -->
    <defs>
        <linearGradient id="metalGradient" x1="0%" y1="0%" x2="0%" y2="100%">
            <stop offset="0%" stop-color="#607D8B"/>
            <stop offset="50%" stop-color="#78909C"/>
            <stop offset="100%" stop-color="#607D8B"/>
        </linearGradient>
        <linearGradient id="windowGradient" x1="0%" y1="0%" x2="100%" y2="100%">
            <stop offset="0%" stop-color="#03A9F4"/>
            <stop offset="100%" stop-color="#00E5FF"/>
        </linearGradient>
        <filter id="metalTexture" x="-20%" y="-20%" width="140%" height="140%">
            <feTurbulence type="fractalNoise" baseFrequency="0.05" numOctaves="2" result="noise"/>
            <feDisplacementMap in="SourceGraphic" in2="noise" scale="3" xChannelSelector="R" yChannelSelector="G"/>
        </filter>
    </defs>

    <!-- 星球基底 -->
    <circle cx="100" cy="100" r="50" fill="#121212" stroke="#212121" stroke-width="1"/>

    <!-- 空间站主体 -->
    <g filter="url(#metalTexture)">
        <circle cx="100" cy="100" r="25" fill="url(#metalGradient)" stroke="#455A64" stroke-width="2"/>
        <circle cx="100" cy="100" r="20" fill="#263238" stroke="#37474F" stroke-width="1"/>

        <!-- 空间站窗户 -->
        <g fill="url(#windowGradient)">
            <rect x="95" y="75" width="10" height="8" rx="2"/>
            <rect x="115" y="95" width="8" height="10" rx="2"/>
            <rect x="95" y="125" width="10" height="8" rx="2"/>
            <rect x="85" y="95" width="8" height="10" rx="2"/>
        </g>
    </g>

    <!-- 空间站延伸臂 -->
    <g filter="url(#metalTexture)">
        <rect x="100" y="50" width="4" height="20" fill="url(#metalGradient)"/>
        <rect x="140" y="100" width="20" height="4" fill="url(#metalGradient)"/>
        <rect x="100" y="150" width="4" height="20" fill="url(#metalGradient)"/>
        <rect x="60" y="100" width="20" height="4" fill="url(#metalGradient)"/>
    </g>

    <!-- 太阳能板 -->
    <g filter="url(#metalTexture)">
        <rect x="160" y="90" width="20" height="20" fill="#37474F" stroke="#455A64" stroke-width="1"/>
        <rect x="40" y="90" width="20" height="20" fill="#37474F" stroke="#455A64" stroke-width="1"/>
        <rect x="160" y="110" width="20" height="20" fill="#37474F" stroke="#455A64" stroke-width="1"/>
        <rect x="40" y="110" width="20" height="20" fill="#37474F" stroke="#455A64" stroke-width="1"/>
    </g>

    <!-- 推进器 -->
    <g filter="url(#metalTexture)">
        <circle cx="100" cy="30" r="8" fill="#455A64"/>
        <circle cx="100" cy="170" r="8" fill="#455A64"/>
        <circle cx="30" cy="100" r="8" fill="#455A64"/>
        <circle cx="170" cy="100" r="8" fill="#455A64"/>
    </g>

    <!-- 推进器火焰 -->
    <g fill="#FF9800" opacity="0.7">
        <path d="M100,30 L100,20 L105,25 L95,25 Z" fill="url(#windowGradient)"/>
        <path d="M100,170 L100,180 L105,175 L95,175 Z" fill="url(#windowGradient)"/>
        <path d="M30,100 L20,100 L25,105 L25,95 Z" fill="url(#windowGradient)"/>
        <path d="M170,100 L180,100 L175,105 L175,95 Z" fill="url(#windowGradient)"/>
    </g>

    <!-- 空间站连接线 -->
    <path d="M120,50 L140,50" stroke="#455A64" stroke-width="1" stroke-dasharray="3,2"/>
    <path d="M120,70 L140,70" stroke="#455A64" stroke-width="1" stroke-dasharray="3,2"/>
    <path d="M120,150 L140,150" stroke="#455A64" stroke-width="1" stroke-dasharray="3,2"/>
    <path d="M120,170 L140,170" stroke="#455A64" stroke-width="1" stroke-dasharray="3,2"/>
    <path d="M60,50 L40,50" stroke="#455A64" stroke-width="1" stroke-dasharray="3,2"/>
    <path d="M60,70 L40,70" stroke="#455A64" stroke-width="1" stroke-dasharray="3,2"/>
    <path d="M60,150 L40,150" stroke="#455A64" stroke-width="1" stroke-dasharray="3,2"/>
    <path d="M60,170 L40,170" stroke="#455A64" stroke-width="1" stroke-dasharray="3,2"/>
</svg>