<svg width="200" height="200" viewBox="0 0 200 200" xmlns="http://www.w3.org/2000/svg">
    <!-- 星球基底 -->
    <circle cx="100" cy="100" r="90" fill="#E0E0E0" stroke="#BDBDBD" stroke-width="2"/>

    <!-- 湖泊主体 -->
    <path d="M50,80 Q100,50 150,80 T200,80 T200,120 T150,120 T100,90 T50,120 T0,120 T0,80 T50,80" fill="#2196F3"/>

    <!-- 湖水波纹 -->
    <path d="M50,90 Q100,60 150,90 T200,90" stroke="#42A5F5" stroke-width="2" fill="none" stroke-dasharray="5,3"/>
    <path d="M50,100 Q100,70 150,100 T200,100" stroke="#64B5F6" stroke-width="1.5" fill="none" stroke-dasharray="4,2"/>
    <path d="M50,110 Q100,80 150,110 T200,110" stroke="#90CAF9" stroke-width="1" fill="none" stroke-dasharray="3,1"/>

    <!-- 湖泊倒影 -->
    <path d="M50,80 Q100,50 150,80 T200,80" fill="#0D47A1" opacity="0.2"/>

    <!-- 湖边陆地 -->
    <path d="M0,80 Q25,70 50,80 T100,85 T150,80 T200,80" fill="#8D6E63" opacity="0.7"/>
    <path d="M0,120 Q25,130 50,120 T100,115 T150,120 T200,120" fill="#8D6E63" opacity="0.7"/>
</svg>