<svg width="200" height="200" viewBox="0 0 200 200" xmlns="http://www.w3.org/2000/svg">
    <!-- 滤镜定义 -->
    <defs>
        <radialGradient id="gateGlow" cx="50%" cy="50%" r="50%" fx="50%" fy="50%">
            <stop offset="0%" stop-color="#6C13FF" stop-opacity="0.8"/>
            <stop offset="100%" stop-color="#9D4EDD" stop-opacity="0"/>
        </radialGradient>
        <filter id="metalTexture" x="-20%" y="-20%" width="140%" height="140%">
            <feTurbulence type="fractalNoise" baseFrequency="0.05" numOctaves="3" result="noise"/>
            <feDisplacementMap in="SourceGraphic" in2="noise" scale="5" xChannelSelector="R" yChannelSelector="G"/>
        </filter>
        <linearGradient id="metalGradient" x1="0%" y1="0%" x2="0%" y2="100%">
            <stop offset="0%" stop-color="#333333"/>
            <stop offset="50%" stop-color="#555555"/>
            <stop offset="100%" stop-color="#333333"/>
        </linearGradient>
    </defs>

    <!-- 星球基底 -->
    <circle cx="100" cy="100" r="80" fill="#1A1A1A" stroke="#333333" stroke-width="2"/>

    <!-- 星际之门框架 -->
    <g filter="url(#metalTexture)">
        <circle cx="100" cy="100" r="60" fill="url(#metalGradient)" stroke="#666666" stroke-width="8"/>
        <circle cx="100" cy="100" r="55" fill="#222222" stroke="#444444" stroke-width="2"/>

        <!-- 门环装饰 -->
        <path d="M100,40 L110,50 L100,60 L90,50 Z" fill="#8B00FF" stroke="#6A00CC" stroke-width="1"/>
        <path d="M160,100 L150,110 L140,100 L150,90 Z" fill="#8B00FF" stroke="#6A00CC" stroke-width="1"/>
        <path d="M100,160 L110,150 L100,140 L90,150 Z" fill="#8B00FF" stroke="#6A00CC" stroke-width="1"/>
        <path d="M40,100 L50,110 L60,100 L50,90 Z" fill="#8B00FF" stroke="#6A00CC" stroke-width="1"/>
    </g>

    <!-- 能量漩涡 -->
    <g>
        <circle cx="100" cy="100" r="45" fill="url(#gateGlow)"/>
        <path d="M100,40 Q120,80 100,120 Q80,80 100,40" fill="none" stroke="#FF2BFF" stroke-width="2" stroke-dasharray="5,3"/>
        <path d="M100,45 Q125,85 100,125 Q75,85 100,45" fill="none" stroke="#FF77FF" stroke-width="1.5" stroke-dasharray="4,2"/>
        <path d="M100,50 Q130,90 100,130 Q70,90 100,50" fill="none" stroke="#FFBBFF" stroke-width="1" stroke-dasharray="3,1"/>
    </g>

    <!-- 符文刻痕 -->
    <g fill="#FFD700" font-size="8" font-family="Arial">
        <text x="115" y="80" transform="rotate(-30 115,80)">𐌆</text>
        <text x="130" y="100" transform="rotate(-45 130,100)">𐌇</text>
        <text x="115" y="120" transform="rotate(-60 115,120)">𐌈</text>
        <text x="90" y="130" transform="rotate(-90 90,130)">𐌉</text>
        <text x="65" y="120" transform="rotate(-120 65,120)">𐌊</text>
        <text x="50" y="100" transform="rotate(-135 50,100)">𐌋</text>
        <text x="65" y="80" transform="rotate(-150 65,80)">𐌌</text>
    </g>

    <!-- 能量脉冲 -->
    <circle cx="100" cy="100" r="50" fill="none" stroke="#9D4EDD" stroke-width="1" opacity="0.3" class="pulse-1"/>
    <circle cx="100" cy="100" r="55" fill="none" stroke="#9D4EDD" stroke-width="0.5" opacity="0.2" class="pulse-2"/>
</svg>